<svg width="64" height="63" viewBox="0 0 64 63" fill="none" xmlns="http://www.w3.org/2000/svg">
<path d="M63.5 31.499C63.5 48.896 49.397 62.999 32 62.999C14.603 62.999 0.5 48.896 0.5 31.499C0.5 14.102 14.603 -0.000976562 32 -0.000976562C49.397 -0.000976562 63.5 14.102 63.5 31.499Z" fill="#BAE6FD"/>
<path fill-rule="evenodd" clip-rule="evenodd" d="M32 61.0302C48.3097 61.0302 61.5312 47.8087 61.5312 31.499C61.5312 15.1893 48.3097 1.96777 32 1.96777C15.6903 1.96777 2.46875 15.1893 2.46875 31.499C2.46875 47.8087 15.6903 61.0302 32 61.0302ZM32 62.999C49.397 62.999 63.5 48.896 63.5 31.499C63.5 14.102 49.397 -0.000976562 32 -0.000976562C14.603 -0.000976562 0.5 14.102 0.5 31.499C0.5 48.896 14.603 62.999 32 62.999Z" fill="white"/>
</svg>
